<?xml version="1.0" encoding="utf-8"?>
<!-- Generator: Adobe Illustrator 25.0.0, SVG Export Plug-In . SVG Version: 6.00 Build 0)  -->
<svg version="1.1" xmlns="http://www.w3.org/2000/svg" xmlns:xlink="http://www.w3.org/1999/xlink" x="0px" y="0px"
	 viewBox="0 0 348.9 228.8" style="enable-background:new 0 0 348.9 228.8;" xml:space="preserve">
<style type="text/css">
	.st0{fill:#C1C3C6;}
	.st1{opacity:0.3;fill:#CECDCC;}
</style>
<g id="Background">
</g>
<g id="Objects">
	<g>
		<g>
			<g>
				<g>
					<g>
						<path class="st0" d="M49.2,174.8V146H0v-9.4L47.2,69h15.5v65.8h14.8V146H62.7v28.8H49.2z M49.2,134.8V99.4
							c0-5.5,0.2-11.1,0.5-16.6h-0.5c-3.3,6.2-5.9,10.7-8.8,15.6l-25.9,36v0.3H49.2z"/>
					</g>
				</g>
				<g>
					<g>
						<path class="st0" d="M320.6,174.8V146h-49.2v-9.4L318.7,69h15.5v65.8h14.8V146h-14.8v28.8H320.6z M320.6,134.8V99.4
							c0-5.5,0.2-11.1,0.5-16.6h-0.5c-3.3,6.2-5.9,10.7-8.8,15.6l-25.9,36v0.3H320.6z"/>
					</g>
				</g>
			</g>
			<path class="st0" d="M178,184.8c-51,0-92.4-41.5-92.4-92.4S127.1,0,178,0c51,0,92.4,41.5,92.4,92.4S229,184.8,178,184.8z M178,20
				c-39.9,0-72.4,32.5-72.4,72.4s32.5,72.4,72.4,72.4c39.9,0,72.4-32.5,72.4-72.4S218,20,178,20z"/>
		</g>
		<g>
			<g>
				<g id="XMLID_518_">
					<path id="XMLID_2_" class="st1" d="M249.4,210.1c0,10.3-32.9,18.7-73.5,18.7c-40.6,0-73.5-8.4-73.5-18.7
						c0-10.3,32.9-18.7,73.5-18.7C216.5,191.4,249.4,199.8,249.4,210.1z"/>
				</g>
			</g>
		</g>
	</g>
</g>
<g id="Designed_by_Freepik">
</g>
</svg>
