<?xml version="1.0" encoding="utf-8"?>
<!-- Generator: Adobe Illustrator 25.0.0, SVG Export Plug-In . SVG Version: 6.00 Build 0)  -->
<svg version="1.1" xmlns="http://www.w3.org/2000/svg" xmlns:xlink="http://www.w3.org/1999/xlink" x="0px" y="0px"
	 viewBox="0 0 593.6 585.9" style="enable-background:new 0 0 593.6 585.9;" xml:space="preserve">
<style type="text/css">
	.st0{fill:#FFFFFF;}
</style>
<g id="Слой_6">
</g>
<g id="Слой_3">
</g>
<g id="Слой_7">
	<path class="st0" d="M468.4,334.5c-18.8,79.6-90.6,138.9-175.9,138.7c-98.8-0.2-179.5-81-179.8-179.8
		c-0.2-99.6,80.7-180.7,180.2-180.7c16.1,0,31.8,2.1,46.7,6.1c24.2,6.5,49.8-4.5,61.7-26.6l0,0c16.7-30.9,0-69.2-34-78.2
		c-24-6.3-48.9-9.6-74.3-9.6c-77.1,0-149.6,30-204.1,84.5C34.4,143.4,4.4,215.9,4.4,293s30,149.6,84.5,204.1
		c54.5,54.5,127,84.5,204.1,84.5c77.1,0,149.6-30,204.1-84.5c38.4-38.4,64.6-85.6,76.8-137.1c8.1-34.2-17.6-67-52.7-67h0
		C496.1,293,474.2,310.1,468.4,334.5z"/>
	<circle class="st0" cx="517.7" cy="153.6" r="71.5"/>
</g>
</svg>
