<?xml version="1.0" encoding="utf-8"?>
<!-- Generator: Adobe Illustrator 25.0.0, SVG Export Plug-In . SVG Version: 6.00 Build 0)  -->
<svg version="1.1" xmlns="http://www.w3.org/2000/svg" xmlns:xlink="http://www.w3.org/1999/xlink" x="0px" y="0px"
	 viewBox="0 0 2741.7 585.9" style="enable-background:new 0 0 2741.7 585.9;" xml:space="preserve">
<style type="text/css">
	.st0{fill:#353D43;}
	.st1{fill:#026FD6;}
</style>
<g id="Слой_6">
	<g id="Слой_6_1_">
		<g>
			<path class="st0" d="M1023.1,205.3c3.9,0,5.9,2,5.9,5.9v25.9c0,3.9-2,5.9-5.9,5.9H887.1c-10.4,0-14.4,5.6-14.4,15.2v9.3
				c0,10.1,4.5,15.2,14.1,15.2h102c31.3,0,47.6,16.9,47.6,46.8v21.7c0,26.5-15.2,44.2-48.2,44.2H837.8c-3.9,0-6.2-2-6.2-5.9v-25.9
				c0-3.9,2.3-5.9,6.2-5.9h142.6c10.4,0,14.4-5.6,14.4-15.2v-11.3c0-10.1-4.5-15.2-14.1-15.2h-102c-31.3,0-47.6-16.9-47.6-46.8
				v-19.7c0-26.5,15.2-44.2,48.2-44.2H1023.1z"/>
			<path class="st0" d="M1122.3,205.3c17.5,0,21.1,2.3,31.6,16.1L1255,353.7c0.8,1.4,2,2,3.7,2h2.5c1.4,0,2.3-0.8,2.3-2.8V211.2
				c0-3.9,2-5.9,5.9-5.9h28.5c3.9,0,5.9,2,5.9,5.9V367c0,22-7.9,28.2-24.5,28.2h-23.4c-16.6,0-20.6-1.7-31.6-16.1l-101.4-132.4
				c-1.1-1.4-2-2-3.7-2h-2.5c-1.7,0-2.3,0.8-2.3,2.8v141.7c0,3.9-2,5.9-5.9,5.9h-28.5c-3.9,0-6.2-2-6.2-5.9V233.4
				c0-22,7.9-28.2,24.5-28.2H1122.3z"/>
			<path class="st0" d="M1466.9,205.3c13.8,0,22.3,4.2,31.3,20.6L1588,389c2,3.7,1.1,6.2-3.4,6.2h-34.4c-3.7,0-4.8-0.8-6.2-3.7
				l-19.2-34.9h-127.6l-18.9,34.9c-1.4,2.8-3.1,3.7-6.2,3.7H1337c-4.5,0-5.4-2.8-3.7-6.2l89-163.1c9-16.3,17.2-20.6,28.5-20.6
				C1450.8,205.3,1466.9,205.3,1466.9,205.3z M1414.2,325.3h93.5l-43.1-79.5c-0.8-1.4-1.7-2-3.1-2h-1.7c-1.4,0-2.3,0.6-3.1,2
				L1414.2,325.3z"/>
			<path class="st0" d="M1772,205.3c41.7,0,58.3,19.2,58.3,56.1v20c0,36.6-16.9,56.1-58.3,56.1h-112.4v52.1c0,3.9-2,5.9-5.9,5.9
				h-29.3c-3.9,0-6.2-2-6.2-5.9V213.4c0-5.4,2.8-8.2,8.2-8.2C1626.3,205.3,1772,205.3,1772,205.3z M1659.6,301.3h104
				c18.6,0,25.4-7.9,25.4-24.2v-10.4c0-16.3-6.8-24.2-25.4-24.2H1663c-2.5,0-3.7,0.8-3.7,3.4L1659.6,301.3L1659.6,301.3z"/>
			<path class="st0" d="M2158.3,205.3c3.9,0,5.9,2,5.9,5.9v26.5c0,3.9-2,6.2-5.9,6.2h-120.9c-27.9,0-36.1,8.2-36.1,36.9v38.6
				c0,28.7,8.2,37.2,36.1,37.2h120.9c3.9,0,5.9,2,5.9,5.9V389c0,3.9-2,5.9-5.9,5.9h-122.6c-54.9,0-76.1-19.4-76.1-71.8v-46.8
				c0-52.1,21.1-71.8,76.1-71.8h122.6V205.3z"/>
			<path class="st0" d="M2354.1,205.3c41.7,0,58.3,19.2,58.3,56.1v15.5c0,31-11.8,49.3-40.6,54.4l46.5,57.5c1.7,2,1.4,6.8-3.7,6.8
				h-34.9c-4.5,0-5.9-1.1-7.6-3.7l-42.8-56.3h-87.6v54.1c0,3.9-2,5.9-5.9,5.9h-29.3c-3.9,0-6.2-2-6.2-5.9V213.4
				c0-5.4,2.8-8.2,8.2-8.2C2208.4,205.3,2354.1,205.3,2354.1,205.3z M2241.7,302.2h104c18.6,0,25.4-7.9,25.4-24.2v-11.6
				c0-16.3-6.8-24.2-25.4-24.2H2245c-2.5,0-3.7,1.1-3.7,3.4L2241.7,302.2L2241.7,302.2z"/>
			<path class="st0" d="M2506.5,205.3c16.3,0,21.7,3.7,29,20.6l56.6,130.4c0.8,2,2,2.5,3.9,2.5h3.4c2,0,3.1-0.6,3.9-2.5l56.6-130.4
				c7.3-17.2,12.7-20.6,28.7-20.6h29c18.9,0,23.9,7.6,23.9,28.2v155.8c0,3.9-2.3,5.9-6.2,5.9h-27.6c-3.9,0-5.9-2-5.9-5.9V247.5
				c0-2-0.6-2.8-2.3-2.8h-2.5c-2,0-3.1,0.6-3.7,2.3l-54.9,121.7c-9,19.4-16.6,26.5-34.7,26.5h-13c-18.3,0-25.9-7-34.7-26.5
				L2501.4,247c-0.6-1.7-1.7-2.3-3.7-2.3h-2.5c-1.7,0-2.3,0.8-2.3,2.8v141.7c0,3.9-2,5.9-5.9,5.9h-27.6c-3.9,0-6.2-2-6.2-5.9V233.4
				c0-20.6,4.8-28.2,24.2-28.2H2506.5z"/>
		</g>
	</g>
</g>
<g id="Слой_3">
</g>
<g id="Слой_7">
	<path class="st1" d="M471,335.1c-19.1,80.8-91.9,141-178.5,140.8c-100.3-0.3-182.2-82.2-182.5-182.5C109.7,192.3,191.9,110,293,110
		c16.4,0,32.3,2.2,47.4,6.2c24.6,6.6,50.5-4.6,62.6-27l0,0c17-31.4,0-70.3-34.5-79.4C344.1,3.3,318.8,0,293,0
		C214.7,0,141.1,30.5,85.8,85.8C30.5,141.1,0,214.7,0,293s30.5,151.8,85.8,207.2c55.3,55.3,128.9,85.8,207.2,85.8
		c78.3,0,151.8-30.5,207.2-85.8c38.9-38.9,65.6-86.9,77.9-139.2c8.2-34.7-17.9-68-53.5-68h0C499.1,293,476.9,310.4,471,335.1z"/>
	<circle class="st1" cx="521" cy="151.5" r="72.6"/>
</g>
</svg>
